<svg version="1.1" id="台北市" fill="none" xmlns="http://www.w3.org/2000/svg" viewBox="0 0 634 652"  xml:space="preserve">
	<g>
		<path id="松山區" fill="#DCDBDB" stroke="#FDFEFE" stroke-width="0.5" d="M335.9,356.8l3.4,53.8l14.9-2.8l0.3,8.9l-48,9.4l-29.7,0.7l1.1-52.7l17.9-20.6L335.9,356.8z"
			/>
		<path id="信義區" fill="#DCDBDB" stroke="#FDFEFE" stroke-width="0.5" d="M354.5,416.6l25.6,42.7l-30,41.5l-25.9,13.6l-28.6-38.8l10.9-49.7L354.5,416.6z"/>
		<path id="大安區" fill="#DCDBDB" stroke="#FDFEFE" stroke-width="0.5" d="M276.8,426.8l29.7-0.7l-10.9,49.7l28.6,38.8l-61.9-7.5l-32.9-39.9l23.9-41.5L276.8,426.8
			L276.8,426.8z"/>
		<path id="中山區" fill="#DCDBDB" stroke="#FDFEFE" stroke-width="0.5" d="M335.9,356.8l-40.2-3.2l-17.9,20.6l-1.1,52.7l-23.4-1.3l-30.5-7l8.3-68.5l35.9-35.3l27.7-1.2
			L335.9,356.8z"/>
		<path id="中正區" fill="#DCDBDB" stroke="#FDFEFE" stroke-width="0.5" d="M222.8,418.5l30.6,7L229.4,467l32.9,39.9l-11.3,6.2L209.3,482l-17.6-19.4l11.3-43.9
			L222.8,418.5L222.8,418.5z"/>
		<path id="大同區" fill="#DCDBDB" stroke="#FDFEFE" stroke-width="0.5" d="M231.1,350l-8.3,68.5l-19.8,0.2l-10.3-3.5l0.3-67.2L231.1,350z"/>
		<path id="萬華區" fill="#DCDBDB" stroke="#FDFEFE" stroke-width="0.5" d="M203,418.8l-11.3,43.9l17.6,19.4L170,512l-11.6-16.9l-7.3-54.7l41.6-25.2L203,418.8L203,418.8
			z"/>
		<path id="文山區" fill="#DCDBDB" stroke="#FDFEFE" stroke-width="0.5" d="M391.4,499.6l6.2,89.3l42.5,18.3L417,619.7l-102.9-1.7l-15.7-46.8l-47.6-14.7l-0.7-11.8
			l1-31.6l11.3-6.2l61.9,7.5l25.9-13.6L391.4,499.6L391.4,499.6z"/>
		<path id="南港區" fill="#DCDBDB" stroke="#FDFEFE" stroke-width="0.5" d="M431.9,381.4l18.9,62.5l54.2,24.1l33.6-5.6l-4,16.2l-50.4-0.7l-92.8,21.7l-41.3,1.3l30-41.5
			l-25.6-42.7l-0.3-8.9L431.9,381.4z"/>
		<path id="內湖區" fill="#DCDBDB" stroke="#FDFEFE" stroke-width="0.5" d="M388,261.7l65.5,43.1l5.1,22.9l-26.7,53.8l-77.6,26.3l-14.9,2.8l-3.4-53.8l-41.3-43.3
			L388,261.7z"/>
		<path id="士林區" fill="#DCDBDB" stroke="#FDFEFE" stroke-width="0.5" d="M375.4,143.4l-0.4,27.5l39,52.4l-26,38.3l-93.3,51.8l-27.7,1.2L231.1,350l-38.1-2l-29.2-40
			l-61.1-20l-7.7-22.8l4-8.3l60.3,1.9l17.9,40.9l42.4-3.1l30.8-90.2l30.5-10.2L346,67.9l16.4,1.7l-10.5,69.2L375.4,143.4z"/>
		<path id="北投區" fill="#DCDBDB" stroke="#FDFEFE" stroke-width="0.5" d="M346,67.9l-65.1,128.3l-30.5,10.2l-30.8,90.2l-42.4,3.1l-17.9-40.9l-60.3-1.9l-4.5-16.2
			l93.9-120.1l37.6,9.2l3.6-23.2l45.1-23.5l35.2-50.6L346,67.9z"/>
	</g>
</svg>
