<svg width="718" height="929" viewBox="0 0 718 929" fill="none" xmlns="http://www.w3.org/2000/svg">
  <g clip-path="url(#clip0_336_34015)">
    <path id="高雄市" d="M531.176 615.005L532.541 619.166L530.387 622.753L526.366 624.474L525.361 626.77L526.079 629.64L530.099 632.222L534.623 635.952L536.633 641.404L536.849 643.198L525.648 645.924L521.053 648.865L518.181 651.663L512.58 655.322L511.934 659.411L513.585 663.715L511.647 667.23L506.334 670.099L505.759 675.049L507.267 682.151L505.113 691.621L505.041 699.655L501.954 703.888L495.851 709.053L494.199 716.083L495.133 721.894L497.287 725.194L501.738 729.785L502.6 733.3L499.8 733.659L496.066 733.013L492.979 733.157L486.876 737.963L482.64 734.018L477.183 727.633L472.013 728.924L467.274 733.157L457.869 728.422L451.119 731.65L446.524 736.744L440.78 738.752L428 737.963L426.779 741.478L425.846 746.643L423.979 752.311L424.338 757.332L424.266 764.147L420.174 779.356L420.102 784.449L422.04 789.829L422.328 795.712L416.512 810.418L414.645 809.629L413.496 809.7L412.204 810.203H410.624L401.29 802.885L392.602 790.618L401.721 801.666L400.644 796.357L397.916 791.192L394.11 786.888L387.648 780.862L385.135 777.849L383.986 774.406L385.566 771.106L386.356 768.165L385.279 764.004L383.34 759.986L379.822 754.463L376.519 747.145L375.801 743.917L375.873 741.765L376.95 739.183L377.165 737.461L376.806 736.6L374.868 734.95L374.509 733.3L372.427 729.785L371.924 728.35L370.416 718.594L374.796 715.94L374.94 716.298L377.74 722.468L381.186 724.261L392.459 725.839L398.346 725.194L404.378 725.911L407.393 724.835L409.906 722.97L414.573 721.105L419.097 717.948L420.82 714.003L422.974 710.272L426.779 705.179L431.159 700.588L435.826 696.714L441.139 691.549L445.806 685.523L452.986 673.328L460.453 662.495L462.105 657.761L461.387 652.954L460.382 649.726L460.453 646.139L463.038 643.628L467.992 644.131L472.157 643.7L480.988 638.463L484.219 634.589L489.891 630.213L495.42 627.129L498.436 623.542L501.02 618.664L507.123 613.786L520.406 607.042L523.494 607.76L527.658 609.338L530.674 613.57L531.176 615.005Z" fill="#CEBDAD" stroke="white" stroke-width="2" stroke-linecap="round" stroke-linejoin="round" />
    <path id="屏東縣" d="M408.829 836.459L410.265 838.539L410.05 839.257L408.111 840.548L404.521 843.633L403.875 841.265L404.88 839.328L406.891 836.746H408.327L408.829 836.459ZM499.8 733.659L502.313 738.394L502.815 741.909L506.693 742.841L510.642 745.424L508.631 755.324L508.559 759.054L507.123 762.641L500.087 765.582L496.641 767.519L491.184 768.667L487.307 771.895L485.583 776.63L482.927 781.364L480.773 786.745L480.198 797.29L481.06 801.953L482.496 806.329L483.286 811.422V815.296L485.153 818.883L488.455 822.9L486.66 825.626L482.855 827.922L481.347 830.72L480.988 833.948L482.927 836.746L485.368 837.965L487.594 841.122L487.522 845.211L487.953 849.587L490.25 853.819L493.553 857.334L500.877 860.706L504.108 860.491L504.754 897.507L503.605 902.744L501.81 907.048L499.369 908.842L496.497 911.496L496.569 917.45L497.646 924.05L497.359 928.283L494.128 923.405L489.245 919.674L483.645 917.163L477.901 915.8L477.685 920.535L476.034 922.185L473.593 921.611L470.936 919.387L470.793 917.666L471.726 912.644L467.777 906.044L467.418 904.322L467.49 902.816L467.777 900.52V892.773L468.136 890.549L469.931 887.966L470.29 885.814L456.002 848.798L454.853 846.717L450.904 841.839L447.745 834.737L446.309 832.728L440.421 828.066L436.544 825.913L435.898 823.259L435.395 822.327L432.236 820.246L425.056 816.803L421.825 814.579L418.379 811.566L416.512 810.418L422.328 795.712L422.04 789.829L420.102 784.449L420.174 779.356L424.266 764.147L424.338 757.332L423.979 752.311L425.846 746.644L426.779 741.478L428 737.963L440.78 738.752L446.524 736.744L451.119 731.65L457.869 728.422L467.274 733.157L472.013 728.924L477.183 727.633L482.64 734.018L486.876 737.963L492.979 733.157L496.066 733.013L499.8 733.659Z" fill="#CEBDAD" stroke="white" stroke-width="2" stroke-linecap="round" stroke-linejoin="round" />
    <path id="台南市" d="M347.368 694.634L346.938 695.495L345.286 694.06L344.066 691.047L344.281 690.114H344.784L345.43 690.975L345.932 692.338L347.44 693.916L347.368 694.634ZM347.727 674.834L345.645 679.712L348.445 670.171L348.876 670.243L347.727 674.834ZM350.24 665.652L352.753 658.55L353.112 658.478L353.256 659.841L350.24 665.652ZM354.764 649.511L354.477 651.233L354.907 643.629L355.266 643.772L354.764 649.511ZM462.105 657.761L460.453 662.495L452.986 673.328L445.806 685.523L441.139 691.549L435.826 696.714L431.159 700.588L426.779 705.179L422.974 710.273L420.82 714.003L419.097 717.949L414.573 721.105L409.906 722.97L407.393 724.835L404.378 725.911L398.346 725.194L392.459 725.84L381.186 724.261L377.74 722.468L374.94 716.299L374.796 715.94L370.416 718.594L369.698 714.075L368.406 711.492L365.606 708.694L368.98 706.255L370.919 701.879L370.129 698.149L365.606 697.503L364.744 698.795L363.954 701.234L362.662 703.171L360.292 703.099L359.359 701.449L359.718 696.427L359.144 694.706L356.2 693.414L354.548 694.921L353.256 697.001L351.246 697.503L349.163 695.71L348.661 693.199L349.163 690.76L349.953 689.11L352.107 687.962L354.764 687.604L356.99 686.886L357.708 684.734L356.702 683.658L349.953 681.936V680.573L355.625 680.502L355.051 678.636L351.964 675.982L349.953 673.687L350.456 670.817L352.251 669.741L354.189 669.095L355.195 667.302L354.62 664.504L353.615 662.209L354.261 660.056L355.266 657.402L356.918 655.537L356.559 653.887L356.918 652.237L359.287 645.781L360.436 644.561L362.303 644.131L359.646 642.337L360.795 639.396L364.529 640.831L370.919 641.763L376.088 643.055L380.54 641.046L382.335 637.531L386.499 634.948L391.238 631.29L394.613 627.846L398.993 624.546L404.593 622.036L415.507 620.027L421.61 619.668L426.779 621.39L429.651 623.112L431.159 626.125L432.38 629.783L439.488 637.029L440.206 642.409L438.913 652.596L440.062 655.896L443.293 658.406H446.022L449.827 656.685L453.417 656.254L456.074 657.043L462.105 657.761Z" fill="#CEBDAD" stroke="white" stroke-width="2" stroke-linecap="round" stroke-linejoin="round" />
    <path id="新竹市" d="M520.047 350.796L519.904 350.94L516.601 351.729L513.442 350.509L511.503 347.783L508.416 345.918L503.462 343.981L504.323 341.04L508.272 332.862L509.852 330.71L510.354 329.634V328.414L509.852 327.051L509.062 325.473L510.139 323.321L511.431 322.029L517.391 324.612L528.233 328.055L532.11 330.064L534.838 332.862L536.202 335.516L535.484 338.099L533.761 339.103L530.099 339.749L525.863 341.47L523.422 344.555L521.771 348.572L520.047 350.796Z" fill="#CEBDAD" stroke="white" stroke-width="2" stroke-linecap="round" stroke-linejoin="round" />
    <path id="新竹縣" d="M605.346 375.617L603.694 380.28L602.689 383.652L603.12 386.808L600.392 390.969L590.34 401.156L587.252 408.688L585.242 408.114L577.631 408.832L577.057 409.262L576.626 405.747L573.323 400.151L570.954 397.784L570.02 394.628L566.43 391.758L557.455 394.054L554.009 393.695L549.126 394.054L543.598 395.56L540.654 394.843L541.3 391.184L542.234 387.884L541.516 385.015L540.798 382.935L541.516 380.711L542.09 378.2L542.305 375.402L541.803 371.672L539.003 369.233L530.315 365.144L526.007 361.915L523.207 358.759L520.047 350.796L521.771 348.572L523.422 344.555L525.863 341.47L530.099 339.749L533.761 339.103L535.484 338.099L536.202 335.516L534.838 332.862L532.11 330.064L528.233 328.055L517.391 324.612L511.431 322.029L512.508 320.379L512.939 317.582L513.585 315.501L515.021 313.421L516.96 311.914L518.755 311.269L518.611 310.408L519.114 308.328L520.694 303.952L522.201 301.584L524.427 302.373L534.264 301.656L537.567 303.88L540.439 310.121L544.029 311.556L547.116 312.417L550.06 313.851L554.942 315.43L557.527 318.443L556.737 322.603L559.25 325.258L563.917 326.764L566.933 328.988L569.159 331.212L571.887 331.714L574.687 331.499L577.128 334.01L578.995 337.238L582.083 338.816L584.524 340.681L584.811 344.268L585.96 349.505L584.596 355.1L581.293 359.763L581.652 362.848L585.385 365.646L589.837 368.372L593.786 369.017L596.658 371.098L601.899 374.039L605.346 375.617Z" fill="#CEBDAD" stroke="white" stroke-width="2" stroke-linecap="round" stroke-linejoin="round" />
    <path id="宜蘭縣" d="M705.363 322.029L706.871 322.388L708.02 323.966L707.517 325.616L704.789 325.545L703.784 324.971L702.563 323.034L703.209 323.249L705.363 322.029ZM671.617 431.501H670.827L662.858 430.281L649.575 422.318L646.846 422.964L645.123 427.268L641.605 430.496H636.938L630.978 428.201L620.208 425.475L615.541 423.251L613.746 421.744L609.51 418.373H605.992L602.617 420.023L599.745 420.453L597.089 418.66L593.93 416.795L590.411 416.077L589.406 413.351L589.837 409.406L587.252 408.688L590.34 401.156L600.392 390.969L603.12 386.808L602.689 383.652L603.694 380.28L605.346 375.617L605.705 374.541L608.505 373.393L610.874 373.824L613.316 372.891L614.895 370.165L612.669 361.27L616.547 358.472L618.772 357.826L622.865 356.679L626.383 355.387L629.112 353.02L632.702 350.509L637.44 348.214L640.241 346.205L639.953 344.77L639.235 342.475L639.092 339.462L640.528 335.946L643.902 333.077L646.631 331.427L655.965 327.625L665.658 321.814L670.109 320.451L673.699 317.869L675.925 314.282L678.295 311.341L680.951 309.906L683.464 309.045L686.767 306.965L687.916 304.239L686.121 301.656L687.126 299.576L695.168 297.926L697.824 296.132L703.855 292.976L708.092 292.043L710.461 293.406L711.035 294.195L702.419 298.5L698.47 301.871L685.044 318.227L682.962 321.671L681.31 326.549L680.161 332.073L679.802 337.525L680.018 342.833L682.387 353.953L682.244 356.822L681.167 359.62L681.31 365.431L683.823 369.95L688.49 372.82L693.947 373.824V375.115L691.649 374.9L689.424 375.115L687.557 375.689L686.193 376.693L688.131 380.28L689.065 384.943L688.49 388.96L684.182 391.4L683.895 393.193L684.398 395.345L685.618 397.282L686.049 399.291L684.254 401.012L679.802 403.595L674.776 409.334L674.561 411.629L674.92 416.651L674.058 418.516L673.125 420.166L672.551 422.462L672.192 427.053L671.761 428.201L671.043 429.133L670.684 430.138L671.617 431.501Z" fill="#CEBDAD" stroke="white" stroke-width="2" stroke-linecap="round" stroke-linejoin="round" />
    <path id="基隆市" d="M671.186 261.842L670.971 270.378L671.115 272.531L673.771 275.328L673.484 277.122L671.689 278.413L668.817 279.489L665.155 279.059L657.544 275.902L655.39 274.324L652.734 271.885L650.723 269.374L649.503 266.863L647.421 264.209L646.99 262.129L649.287 260.55L654.457 258.327L657.616 256.246L658.621 256.892L660.345 258.829L663.145 259.833L671.186 261.842Z" fill="#CEBDAD" stroke="white" stroke-width="2" stroke-linecap="round" stroke-linejoin="round" />
    <path id="苗栗縣" d="M520.047 350.796L523.207 358.759L526.007 361.915L530.315 365.144L539.003 369.233L541.803 371.672L542.305 375.402L542.09 378.2L541.516 380.711L540.798 382.935L541.516 385.015L542.234 387.884L541.3 391.184L540.654 394.843L543.598 395.56L549.126 394.054L554.009 393.695L557.455 394.054L566.43 391.758L570.02 394.628L570.954 397.784L573.323 400.151L576.626 405.747L577.057 409.262L574.4 411.127L573.108 415.145L569.589 416.579L565.784 416.508L562.768 418.66L559.466 421.816L555.229 424.112L546.901 430.712L542.018 432.792L535.628 436.164L531.751 434.657L528.161 430.64L523.853 428.918L516.745 428.344L512.796 430.712L512.149 436.02L508.416 438.029L499.728 438.531L491.399 433.725L486.66 432.864L481.419 430.281L470.577 422.318L466.054 418.373L462.679 414.786L456.074 404.528L461.243 398.717L462.607 395.847L463.254 391.113L464.833 387.095L469.069 379.635L470.218 375.115L471.295 373.178L476.178 371.743L477.542 370.237L478.332 368.372L479.337 366.578L482.352 363.494L485.655 361.055L489.676 359.979L494.774 360.911L494.128 357.037L496.066 354.383L498.723 351.657L500.087 347.568L500.661 346.205L503.246 344.914L503.462 343.981L508.416 345.918L511.503 347.783L513.442 350.509L516.601 351.729L519.904 350.94L520.047 350.796Z" fill="#CEBDAD" stroke="white" stroke-width="2" stroke-linecap="round" stroke-linejoin="round" />
    <path id="台北市" d="M644.333 296.419L641.318 297.639L637.153 297.567L633.707 296.85L631.05 294.482L628.322 291.398L624.157 288.098L621.357 283.291L622.434 277.983L621.573 273.463L617.48 269.518L614.752 266.505L615.9 264.353L617.193 262.631L618.701 259.331L621.285 256.461L629.112 251.87L631.194 250.077L634.066 248.642L636.794 249.503L638.302 251.081L637.943 253.664L638.23 256.174L640.528 261.053L642.323 268.226L645.123 270.737L646.272 273.894L645.123 278.628L645.195 282.287L648.498 284.152L651.226 286.448L649.79 289.532L644.333 296.419Z" fill="#CEBDAD" stroke="white" stroke-width="2" stroke-linecap="round" stroke-linejoin="round" />
    <path id="新北市" d="M656.653 256.098L653.494 258.178L648.325 260.402L646.027 261.98L646.458 264.061L648.54 266.715L649.761 269.226L651.771 271.737L654.428 274.176L656.582 275.754L664.192 278.91L667.854 279.341L670.726 278.265L672.521 276.973L672.808 275.18L670.152 272.382L670.008 270.23L670.224 261.693L695.066 267.719L697.364 269.154L696.215 271.808L695.928 273.889L696.431 277.619L698.154 283.86L700.021 286.801L701.6 287.447L706.626 286.73L709.211 287.017L712.227 287.806L714.883 289.169L716.319 290.962L710.073 294.047L709.498 293.258L707.129 291.895L702.893 292.827L696.861 295.984L694.205 297.777L686.163 299.427L685.158 301.508L686.953 304.09L685.804 306.816L682.501 308.897L679.988 309.757L677.332 311.192L674.962 314.133L672.737 317.72L669.147 320.303L664.695 321.666L655.002 327.477L645.668 331.279L642.94 332.929L639.565 335.798L638.129 339.313L638.273 342.326L638.991 344.622L639.278 346.057L636.478 348.065L631.739 350.361L628.149 352.872L625.42 355.239L621.902 356.53L617.81 357.678L616.015 353.804L609.624 347.706L608.619 343.689L608.045 339.959L610.271 337.305L611.348 333.502L605.245 324.679L601.655 323.244L596.341 323.531L592.68 321.451L593.613 316.644L592.895 312.986L589.018 309.327L588.3 305.668L589.018 301.508L588.874 297.06L591.531 294.19L600.937 291.393L603.306 288.954L604.024 285.941L603.665 282.999L600.003 277.619L596.988 276.041L594.044 275.323L591.746 273.315L588.372 271.091L583.848 268.939L580.833 265.639L588.874 264.132L592.321 262.841L596.7 259.111L598.065 258.465L599.644 258.178H601.87L604.383 258.967L605.747 260.904L606.609 262.841L607.686 263.989L610.199 262.985L607.614 258.896L603.45 254.663L601.224 253.3L601.87 251.363L603.162 250.287L604.527 249.641L605.101 248.924L606.609 245.265L608.906 241.033L613.645 236.8L620.538 233.285L628.436 231.492L636.19 232.353L639.421 234.792L646.601 244.978L649.186 250.287L650.048 249.928L651.986 249.426L654.14 249.139L655.72 249.57L655.648 250.215L654.858 251.148L654.14 252.439L654.212 254.017L655.002 254.878L656.653 256.098ZM643.37 296.271L648.827 289.384L650.263 286.299L647.535 284.004L644.232 282.138L644.16 278.48L645.309 273.745L644.16 270.589L641.36 268.078L639.565 260.904L637.267 256.026L636.98 253.515L637.339 250.933L635.831 249.354L633.103 248.494L630.231 249.928L628.149 251.722L620.323 256.313L617.738 259.182L616.23 262.482L614.938 264.204L613.789 266.356L616.517 269.369L620.61 273.315L621.471 277.834L620.394 283.143L623.195 287.949L627.359 291.249L630.087 294.334L632.744 296.701L636.19 297.419L640.355 297.49L643.37 296.271Z" fill="#CEBDAD" stroke="white" stroke-width="2" stroke-linecap="round" stroke-linejoin="round" />
    <path id="桃園市" d="M618.772 357.826L616.547 358.472L612.669 361.27L614.895 370.165L613.316 372.891L610.874 373.824L608.505 373.393L605.705 374.541L605.346 375.617L601.899 374.039L596.658 371.098L593.786 369.017L589.837 368.372L585.385 365.646L581.652 362.848L581.293 359.763L584.596 355.1L585.96 349.505L584.811 344.268L584.524 340.681L582.083 338.816L578.995 337.238L577.128 334.01L574.687 331.499L571.887 331.714L569.159 331.212L566.933 328.988L563.917 326.764L559.25 325.258L556.737 322.603L557.527 318.443L554.942 315.43L550.06 313.851L547.116 312.417L544.029 311.556L540.439 310.121L537.567 303.88L534.264 301.656L524.427 302.373L522.201 301.584L528.592 291.398L533.546 285.443L538.715 281.067L551.927 276.691L555.014 274.754L557.671 272.459L560.902 270.665L567.364 268.37L581.795 265.787L584.811 269.087L589.334 271.239L592.709 273.463L595.007 275.472L597.95 276.189L600.966 277.767L604.628 283.148L604.987 286.089L604.269 289.102L601.899 291.541L592.494 294.339L589.837 297.208L589.981 301.656L589.263 305.817L589.981 309.475L593.858 313.134L594.576 316.793L593.642 321.599L597.304 323.679L602.617 323.392L606.207 324.827L612.31 333.651L611.233 337.453L609.008 340.107L609.582 343.838L610.587 347.855L616.977 353.953L618.772 357.826Z" fill="#CEBDAD" stroke="white" stroke-width="2" stroke-linecap="round" stroke-linejoin="round" />
    <path id="彰化縣" d="M464.69 494.701L464.761 497.284L461.674 498.432L460.812 500.512L461.171 503.382L459.735 506.682L458.587 510.555L458.515 514.644L457.653 519.379L457.007 528.992L458.515 533.511L461.1 535.879L463.9 536.883L467.921 538.963L467.203 541.474L464.474 542.55L462.679 544.2L460.956 545.348L460.238 545.85L451.622 544.129L447.458 544.2L438.698 539.896L424.553 538.246L416.225 535.09L411.486 533.798L406.029 533.511L390.233 535.377L384.776 532.22L385.351 531.216L386.499 526.122L387.361 523.97L392.459 519.092L393.895 517.084L395.833 511.488L398.849 505.964L402.942 494.415L404.88 491.043L407.034 488.891L408.829 487.671L410.409 486.882L411.558 485.878L411.988 483.726L412.85 481.717L416.512 478.847L417.373 476.695L417.804 469.45L418.45 467.441L420.389 465.576L428.502 456.107L432.667 457.47L435.539 459.981L437.477 464.5L438.195 469.952L441.426 473.826L449.971 476.337L453.058 478.919L455.356 482.506L456.792 485.376L456.863 488.245L457.725 490.612L460.812 491.186L464.69 493.697V494.701Z" fill="#CEBDAD" stroke="white" stroke-width="2" stroke-linecap="round" stroke-linejoin="round" />
    <path id="嘉義縣" d="M358.713 640.759L357.42 641.763L357.133 640.974L358.856 638.75L359.503 637.029L360.292 635.953L360.723 636.311L360.795 637.1L359.79 638.535L358.713 640.759ZM360.292 631.72L359.79 631.218L361.226 628.492L361.872 628.205L361.513 629.568L360.292 631.72ZM363.811 625.264L363.739 622.107L364.098 622.394L364.17 624.475L363.811 625.264ZM364.816 618.305L364.241 619.453L363.882 618.018L364.816 618.305ZM363.882 613.929L363.523 614.862L362.59 613.355L363.882 613.929ZM342.486 614.647L340.188 615.794L342.917 611.921L352.897 601.806L360.508 592.121L362.303 591.547L355.841 602.093L352.61 605.321L350.528 607.831L347.799 610.558L345.645 612.064L342.486 614.647ZM478.547 577.989L482.927 578.491L487.809 580.356L490.753 581.217L494.415 583.226L494.199 587.028L492.045 590.686L492.907 594.13L494.846 598.793L495.133 603.025L495.923 605.751L501.379 606.755L519.76 606.899L520.406 607.042L507.123 613.786L501.02 618.664L498.436 623.542L495.42 627.129L489.891 630.214L484.219 634.59L480.988 638.463L472.157 643.7L467.992 644.131L463.038 643.629L460.453 646.139L460.382 649.726L461.387 652.954L462.105 657.761L456.074 657.043L453.417 656.254L449.827 656.685L446.022 658.406H443.293L440.062 655.896L438.913 652.596L440.206 642.409L439.488 637.029L432.38 629.783L431.159 626.125L429.651 623.112L426.779 621.39L421.61 619.668L415.507 620.027L404.593 622.036L398.993 624.546L394.613 627.846L391.238 631.29L386.499 634.948L382.335 637.531L380.54 641.046L376.088 643.055L370.919 641.763L364.529 640.831L360.795 639.396L363.523 639.181L365.893 638.176L366.898 638.535L366.252 636.24L364.672 637.387L363.38 637.029L361.585 636.957V634.59L363.308 630.572L365.965 630.357L369.842 630.429L367.185 622.896L364.241 617.157L365.606 614.503V613.14L363.38 612.064L363.667 610.773L364.959 609.338L365.606 607.473L368.478 603.742L362.375 604.101L362.231 597.86L370.56 596.856L376.519 600.227L380.899 600.299L383.699 598.003L384.92 594.488L386.428 592.336L390.233 591.762L395.259 587.673L398.418 585.952L401.147 583.226L412.85 576.482L418.02 575.047L427.066 573.398L432.021 573.111L435.826 576.411L439.416 580.643L448.463 583.943L451.119 583.584L457.079 581.863L460.453 584.302L462.177 587.099L466.7 586.669L475.101 584.947L477.973 584.015V581.576L478.188 577.989H478.547ZM411.988 600.084L409.26 603.025L409.906 607.042L414.286 608.764L419.312 611.992L424.553 613.212L429.436 611.275L432.667 610.844L434.821 609.266L433.026 604.388L431.231 601.519L428.287 599.94L424.266 598.434L418.666 598.936L411.988 600.084Z" fill="#CEBDAD" stroke="white" stroke-width="2" stroke-linecap="round" stroke-linejoin="round" />
    <path id="嘉義市" d="M411.988 600.084L418.666 598.936L424.266 598.434L428.287 599.94L431.231 601.519L433.026 604.388L434.821 609.266L432.667 610.844L429.436 611.275L424.553 613.212L419.312 611.992L414.286 608.764L409.906 607.042L409.26 603.025L411.988 600.084Z" fill="#CEBDAD" stroke="white" stroke-width="2" stroke-linecap="round" stroke-linejoin="round" />
    <path id="花蓮縣" d="M671.617 431.501L672.048 432.075L673.197 434.155L673.34 434.944L672.335 436.666L668.171 440.755L663.719 446.924L660.345 449.579L659.339 451.013L659.842 452.52L659.196 453.596L654.457 457.255L652.662 458.976L650.652 463.28L648.569 472.032L643.256 479.852L642.179 483.008L642.323 486.38L643.615 490.11L644.692 491.76L645.626 492.478L646.2 493.482L646.272 495.778L645.482 498.36L642.825 502.521L642.323 505.032L642.036 509.623L639.738 521.316L635.143 533.511L629.399 562.278L625.952 569.308L618.054 615.292L615.541 614.575L607.787 618.305L604.987 622.179L606.207 627.129L606.638 632.079L604.053 637.029L601.612 640.759L599.674 645.494L597.95 651.52L595.294 657.043L591.847 666.513L589.622 670.889L589.693 675.695L589.047 680.143L584.38 682.797L578.493 682.008L570.092 675.049L563.486 663.571L559.394 662.495L554.87 661.85L551.28 658.406L546.901 656.326L541.3 654.317L537.71 648.507L536.849 643.198L536.633 641.405L534.623 635.953L530.099 632.222L526.079 629.64L525.361 626.77L526.366 624.475L530.387 622.753L532.541 619.166L531.176 615.005L535.484 612.494L537.71 610.486L536.49 606.038L537.567 604.101L538.644 601.232L542.377 598.434L547.69 597.286L553.004 597.071L556.809 593.699L557.742 587.601L560.614 583.871L566.071 581.862L569.302 579.639L570.451 575.98L572.749 566.941L573.61 560.915L572.964 555.75L572.102 551.876L569.805 548.935L568.297 546.065L572.39 539.322L572.533 536.668L574.328 531.646L577.128 525.549L579.282 519.236L580.431 512.134L580.862 506.682L579.57 503.453L578.134 501.086L579.785 495.634L583.447 487.958L589.191 480.497L589.406 477.7L588.329 474.472L584.596 472.032L582.513 469.809L582.37 462.707L585.026 460.626L589.765 459.048L593.499 457.326L593.355 454.672L592.35 450.224L594.36 448.789L595.222 447.283L597.663 446.063L599.889 443.337L600.822 439.679L602.976 436.092L608.361 432.72L610.085 428.273L610.372 425.26L613.746 421.745L615.541 423.251L620.208 425.475L630.978 428.201L636.938 430.496H641.605L645.123 427.268L646.846 422.964L649.575 422.318L662.858 430.281L670.827 431.501H671.617Z" fill="#CEBDAD" stroke="white" stroke-width="2" stroke-linecap="round" stroke-linejoin="round" />
    <path id="南投縣" d="M592.35 450.224L593.355 454.672L593.499 457.326L589.765 459.048L585.026 460.626L582.37 462.707L582.513 469.809L584.596 472.032L588.329 474.471L589.406 477.7L589.191 480.497L583.447 487.958L579.785 495.634L578.134 501.086L579.57 503.453L580.862 506.682L580.431 512.134L579.282 519.236L577.128 525.548L574.328 531.646L572.533 536.668L572.39 539.322L568.297 546.065L569.805 548.935L572.102 551.876L572.964 555.75L573.61 560.915L572.749 566.941L570.451 575.98L569.302 579.639L566.071 581.862L560.614 583.871L557.742 587.601L556.809 593.699L553.004 597.071L547.69 597.286L542.377 598.434L538.644 601.231L537.567 604.101L536.49 606.038L537.71 610.486L535.484 612.494L531.176 615.005L530.674 613.57L527.658 609.338L523.494 607.76L520.406 607.042L519.76 606.899L501.379 606.755L495.923 605.751L495.133 603.025L494.846 598.792L492.907 594.13L492.045 590.686L494.199 587.027L494.415 583.225L490.753 581.217L487.809 580.356L482.927 578.491L478.547 577.989L476.68 575.478L470.793 576.123L465.91 577.558L461.746 575.765L458.874 572.393L459.52 568.304L460.884 564.574L460.166 559.05L460.884 553.885L462.32 550.513L460.956 545.348L462.679 544.2L464.474 542.55L467.203 541.474L467.921 538.963L463.9 536.883L461.1 535.879L458.515 533.511L457.007 528.992L457.653 519.379L458.515 514.644L458.587 510.555L459.735 506.682L461.171 503.382L460.812 500.512L461.674 498.432L464.761 497.284L464.69 494.701L467.777 494.845L480.629 496.638L483.645 496.208L487.235 492.765L492.692 482.434L495.348 476.337L499.943 474.184L507.195 475.189L511.503 475.045L515.668 469.522L517.822 468.159L524.212 472.965L526.725 472.319L528.592 468.374L531.966 465.576L536.705 465.648L540.295 464.285L545.967 458.833L549.629 456.752L552.788 456.178L559.107 452.807L563.558 452.663L568.082 451.946L576.051 448.789L579.354 448.574L582.729 449.292L592.35 450.224Z" fill="#CEBDAD" stroke="white" stroke-width="2" stroke-linecap="round" stroke-linejoin="round" />
    <path id="台中市" d="M577.057 409.262L577.631 408.832L585.242 408.114L587.252 408.688L589.837 409.406L589.406 413.351L590.411 416.077L593.93 416.795L597.089 418.66L599.745 420.453L602.617 420.023L605.992 418.373H609.51L613.746 421.744L610.372 425.26L610.085 428.273L608.361 432.72L602.976 436.092L600.822 439.679L599.889 443.337L597.663 446.063L595.222 447.283L594.36 448.789L592.35 450.224L582.729 449.292L579.354 448.574L576.051 448.789L568.082 451.946L563.558 452.663L559.107 452.807L552.788 456.178L549.629 456.752L545.967 458.833L540.295 464.285L536.705 465.648L531.966 465.576L528.592 468.374L526.725 472.319L524.212 472.965L517.822 468.159L515.668 469.522L511.503 475.045L507.195 475.189L499.943 474.185L495.348 476.337L492.692 482.434L487.235 492.765L483.645 496.208L480.629 496.638L467.777 494.845L464.69 494.701V493.697L460.812 491.186L457.725 490.612L456.863 488.245L456.792 485.376L455.356 482.506L453.058 478.919L449.971 476.337L441.426 473.826L438.195 469.952L437.477 464.5L435.539 459.981L432.667 457.47L428.502 456.107L428.933 455.533L429.508 453.165L431.877 451.229L433.457 446.566L435.395 437.742L442.073 426.192L444.083 419.09L446.524 415.145L456.074 404.527L462.679 414.786L466.054 418.373L470.577 422.318L481.419 430.281L486.66 432.864L491.399 433.725L499.728 438.531L508.416 438.029L512.149 436.02L512.796 430.712L516.745 428.344L523.853 428.918L528.161 430.64L531.751 434.657L535.628 436.164L542.018 432.792L546.901 430.712L555.229 424.112L559.466 421.816L562.768 418.66L565.784 416.508L569.589 416.579L573.108 415.145L574.4 411.127L577.057 409.262Z" fill="#CEBDAD" stroke="white" stroke-width="2" stroke-linecap="round" stroke-linejoin="round" />
    <path id="雲林縣" d="M460.956 545.348L462.32 550.513L460.884 553.885L460.166 559.05L460.884 564.574L459.52 568.304L458.874 572.393L461.746 575.765L465.91 577.558L470.793 576.124L476.68 575.478L478.547 577.989H478.188L477.973 581.576V584.015L475.101 584.947L466.7 586.669L462.177 587.099L460.453 584.302L457.079 581.862L451.119 583.584L448.463 583.943L439.416 580.643L435.826 576.41L432.021 573.111L427.066 573.397L418.02 575.047L412.85 576.482L401.147 583.226L398.418 585.952L395.259 587.673L390.233 591.762L386.428 592.336L384.92 594.488L383.699 598.003L380.899 600.299L376.519 600.227L370.56 596.856L362.231 597.86L365.534 594.13L365.39 582.365L365.893 573.541L367.903 566.511L370.991 560.987L371.924 553.813L373.575 547.5L374.509 545.348L378.889 539.537L379.678 537.529L380.181 536.453L384.202 533.368L384.776 532.22L390.233 535.377L406.029 533.511L411.486 533.798L416.225 535.09L424.553 538.246L438.698 539.896L447.458 544.2L451.622 544.129L460.238 545.85L460.956 545.348Z" fill="#CEBDAD" stroke="white" stroke-width="2" stroke-linecap="round" stroke-linejoin="round" />
    <path id="台東縣" d="M638.446 906.044L634.497 907.263L629.255 905.183L624.373 901.74L621.573 899.085L622.434 897.148L622.362 895.355L621.644 893.633L620.424 892.127H634.425V893.418L633.491 895.929L633.204 898.009L633.85 899.803L637.225 902.314L638.661 904.107L638.446 906.044ZM621.214 778.638L621.142 779.427L618.701 779.14L618.413 778.71L616.475 777.993L614.464 774.477L613.459 771.393L613.89 770.962L621.07 770.46L621.86 770.891L622.434 772.325L621.86 775.123L621.214 776.271L620.926 777.49L621.214 778.638ZM504.108 860.491L500.877 860.706L493.553 857.334L490.25 853.819L487.953 849.587L487.522 845.211L487.594 841.122L485.368 837.965L482.927 836.746L480.988 833.948L481.347 830.72L482.855 827.922L486.66 825.626L488.455 822.9L485.153 818.883L483.286 815.296V811.422L482.496 806.329L481.06 801.953L480.198 797.29L480.773 786.745L482.927 781.364L485.583 776.63L487.307 771.895L491.184 768.667L496.641 767.519L500.087 765.582L507.123 762.641L508.559 759.054L508.631 755.324L510.642 745.424L506.693 742.841L502.815 741.909L502.313 738.394L499.8 733.659L502.6 733.3L501.738 729.785L497.287 725.194L495.133 721.894L494.199 716.083L495.851 709.053L501.954 703.888L505.041 699.655L505.113 691.621L507.267 682.151L505.759 675.049L506.334 670.099L511.647 667.23L513.585 663.715L511.934 659.411L512.58 655.322L518.181 651.663L521.053 648.865L525.648 645.924L536.849 643.198L537.71 648.507L541.3 654.317L546.901 656.326L551.28 658.406L554.87 661.85L559.394 662.495L563.486 663.571L570.092 675.049L578.493 682.008L584.38 682.797L589.047 680.143L589.693 675.695L589.622 670.889L591.847 666.513L595.294 657.043L597.95 651.519L599.674 645.494L601.612 640.759L604.053 637.029L606.638 632.079L606.207 627.129L604.987 622.179L607.787 618.305L615.541 614.575L618.054 615.292L614.752 634.231L613.172 637.746L608.074 644.489L606.207 648.004L604.7 652.38L603.623 660.558L603.766 667.876L603.048 674.834L599.53 681.936L598.022 683.443L594.648 685.953L593.068 687.532L592.35 689.182L591.129 693.342L587.683 699.368L585.601 708.766L584.093 712.998L576.698 723.616L575.764 725.553L565.784 734.018L563.415 736.744L563.127 738.68L563.558 743.128L563.415 745.137L562.553 747.432L560.973 749.943L557.599 754.319L554.224 757.547L542.664 765.223L534.91 773.76L532.971 774.764L531.464 776.701L527.73 786.386L525.863 789.973L520.119 797.146L517.75 801.451L516.386 810.274L512.939 822.326L506.118 834.307L505.113 838.396L503.892 849.945L504.108 860.491Z" fill="#CEBDAD" stroke="white" stroke-width="2" stroke-linecap="round" stroke-linejoin="round" />
    <path id="澎湖縣" d="M230.263 664.647L228.97 665.293L228.037 664.217L226.96 660.845L227.678 659.984L230.406 659.052L232.345 659.554L232.417 661.061L232.273 662.208L231.411 663.069L230.263 664.647ZM229.401 656.039L228.18 658.263L226.601 657.832L225.165 656.039L224.949 654.245L225.811 653.456L228.109 653.815L229.401 656.039ZM264.439 653.743L264.152 653.815L263.291 652.739L263.506 652.309L265.301 652.165L265.875 653.6L264.439 653.743ZM274.491 650.443L274.707 650.587H276.358V651.519L275.568 652.596L275.066 653.887L274.276 651.878L274.491 650.443ZM250.438 629.209L249.218 629.281L247.064 630.572L246.777 630.285L247.064 629.353L247.854 628.277L248.356 627.846L249.505 627.631L250.582 628.277L250.438 629.209ZM244.407 624.403L244.479 626.053L244.838 627.2L245.843 628.061L245.412 629.209L244.551 630.07L244.982 631.433L243.905 631.863L241.679 631.648L240.53 631.146L241.535 628.922L241.392 625.909L240.745 626.34L239.309 626.77L238.879 625.12L240.386 621.461L241.535 621.246L243.474 623.829L244.407 624.403ZM208.866 620.314L210.589 620.744V621.892L210.159 622.538L208.651 622.968L207.861 622.179L208.866 620.314ZM250.869 602.523L248.572 604.029L247.064 604.46L245.484 605.249L244.551 604.89L244.335 603.599L244.838 603.168L246.13 603.527L249.002 602.092L250.869 602.523ZM264.87 582.436L264.439 583.369L267.311 582.436L269.537 582.723L271.189 582.58L272.337 580.643L275.712 586.884L276.574 589.754L276.215 591.906L274.779 590.471L272.984 589.251L270.973 588.893L268.101 590.471L266.091 590.686L265.086 591.26L264.583 592.336L263.793 595.277L263.291 596.138L259.916 598.075L256.47 598.577L253.023 597.214L249.505 593.699L250.438 591.906L252.377 594.201L255.249 594.847L258.336 593.986L260.849 591.906L259.126 591.26L257.69 590.399L256.613 589.251L255.608 587.673L255.034 588.677L254.316 589.108L254.1 586.238L254.316 583.369H255.608L257.116 583.728L262.429 580.428L265.732 579.28L264.87 582.436ZM236.222 589.108H233.494L233.996 587.601L234.858 586.669L236.222 586.31L238.017 586.167L239.597 585.521L240.027 584.086L240.099 580.643L242.397 573.182L244.623 571.03L247.638 573.613L245.843 574.689L244.623 577.271L242.612 583.369L242.54 584.947L243.043 586.382L242.828 587.314L240.674 587.673L239.094 587.745L238.017 587.96L237.084 588.391L236.222 589.108ZM260.49 576.267L258.911 576.769L258.121 575.693L257.475 573.182L256.039 571.102L252.951 568.017L256.9 565.076L259.27 566.295L261.567 568.304L262.573 570.384L260.778 572.106L261.496 574.617L260.49 576.267ZM262.357 554.459L262.142 555.104L261.208 552.952L261.065 551.948L262.357 550.872L263.506 548.72L263.865 549.509L265.66 550.513L265.373 551.804L263.793 552.737L262.357 554.459Z" fill="#CEBDAD" stroke="white" stroke-width="2" stroke-linecap="round" stroke-linejoin="round" />
    <path id="金門縣" d="M6.60562 413.495L2.87202 414.571L0.718018 413.71L4.30802 406.608L5.24142 405.604L6.74922 405.245L8.25702 405.173L9.69302 406.177L10.8418 407.469V409.693L9.83662 411.199L8.68782 411.271L7.89802 412.132L7.46722 412.993L6.60562 413.495ZM46.0956 394.269L49.4702 403.308L48.7522 409.621L45.952 412.921L41.0696 409.836L37.4796 408.688L31.6638 409.262L26.566 412.49L23.7658 416.866L21.3246 418.086L18.5244 416.723L16.5858 416.651L14.8626 415.862L14.001 414.356L14.36 413.853L15.8678 411.845L16.3704 410.984L16.514 409.477L16.4422 407.684L15.9396 404.599L14.6472 401.586L14.5036 400.08L15.5806 399.434L21.0374 396.78L28.2174 401.515L33.2434 400.869L34.0332 394.628L35.6846 390.682L41.0696 389.606L46.0956 394.269ZM239.453 295.487L237.371 296.563L236.437 295.702L236.94 293.406L238.663 292.402L239.884 292.617L240.027 293.98L239.453 295.487Z" fill="#CEBDAD" stroke="white" stroke-width="2" stroke-linecap="round" stroke-linejoin="round" />
    <path id="連江縣" d="M336.886 88.8827L336.742 90.5326L335.378 92.0391L332.434 93.4739L334.229 89.4566L336.024 89.8153L336.096 89.1696L336.886 88.8827ZM328.413 88.3088L326.977 89.8153L325.254 87.3762L327.839 86.4436L329.777 87.5197L328.413 88.3088ZM326.116 48.9249L326.834 49.2836L329.993 47.4184H332.003V48.7097L329.993 51.0053L326.044 53.0857L324.823 53.3009L323.028 52.0814L322.454 50.3597L322.813 48.351L323.603 46.9163L324.321 46.7728L324.536 48.351L326.116 48.9249ZM341.409 36.1557L340.978 37.7339L341.409 38.5947L340.404 38.4512L339.327 36.873L338.537 36.3709L336.886 37.3034L336.168 37.0165L335.234 37.2317L334.157 38.4512L333.296 42.0381L332.506 41.536L332.147 40.4599L332.506 37.3752L332.865 36.2274L333.655 35.7252L335.593 35.0796L336.096 34.434L337.675 33.5014L339.47 33.7883L340.404 35.1513L341.409 36.1557ZM434.605 3.44337L433.744 3.73032L432.954 3.44337L431.949 4.37596L431.159 5.88244L430.944 5.52376L430.082 5.38028L428.79 4.66291L429.579 3.44337L429.22 2.43905L429.867 2.00862L431.446 0.717346L433.313 1.79341L433.744 2.72599L434.605 3.44337Z" fill="#CEBDAD" stroke="white" stroke-width="2" stroke-linecap="round" stroke-linejoin="round" />
  </g>
  <defs>
    <clipPath id="clip0_336_34015">
      <rect width="718" height="929" fill="white" />
    </clipPath>
  </defs>
</svg>