<svg width="34" height="31" viewBox="0 0 34 31" fill="none" xmlns="http://www.w3.org/2000/svg">
<path d="M17.2787 30.4C11.5454 30.4 7.3187 29.08 4.5987 26.44C1.8787 23.8 0.518701 20.1333 0.518701 15.44C0.518701 10.7733 1.8787 7.13333 4.5987 4.52C7.34537 1.88 11.572 0.559998 17.2787 0.559998C22.9854 0.559998 27.1987 1.88 29.9187 4.52C32.6387 7.13333 33.9987 10.7733 33.9987 15.44C33.9987 20.1333 32.6387 23.8 29.9187 26.44C27.1987 29.08 22.9854 30.4 17.2787 30.4ZM17.3187 23.4C19.772 23.4 21.5587 22.6533 22.6787 21.16C23.7987 19.64 24.3587 17.7333 24.3587 15.44C24.3587 13.1733 23.7987 11.2933 22.6787 9.8C21.5587 8.28 19.772 7.52 17.3187 7.52C14.7854 7.52 12.9454 8.28 11.7987 9.8C10.6787 11.2933 10.1187 13.1733 10.1187 15.44C10.1187 17.7067 10.6787 19.6 11.7987 21.12C12.9454 22.64 14.7854 23.4 17.3187 23.4Z" fill="white"/>
</svg>
