<svg width="31" height="30" viewBox="0 0 31 30" fill="none" xmlns="http://www.w3.org/2000/svg">
<path d="M10.5587 23C19.2254 22.52 25.9454 21.9867 30.7187 21.4C30.2654 22.7867 29.9187 24.2533 29.6787 25.8C29.4387 27.3467 29.3187 28.7467 29.3187 30H0.718701L0.678701 29.16C0.678701 26.5467 1.4387 24.28 2.9587 22.36C4.50537 20.44 6.65204 18.6667 9.3987 17.04C10.1987 16.56 11.452 15.9467 13.1587 15.2C15.372 14.24 17.0787 13.4 18.2787 12.68C19.4787 11.9333 20.0787 11.2 20.0787 10.48C20.0787 9.57333 19.7054 8.85333 18.9587 8.32C18.212 7.78666 17.052 7.52 15.4787 7.52C13.7454 7.52 12.4254 7.96 11.5187 8.84C10.6387 9.72 10.1987 10.84 10.1987 12.2C10.1987 12.6267 10.2387 13.0667 10.3187 13.52C6.9587 13.0933 3.69203 12.8 0.518701 12.64C0.518701 10.3733 1.10537 8.33333 2.2787 6.52C3.4787 4.68 5.26537 3.22667 7.6387 2.16C10.0387 1.09333 12.972 0.559998 16.4387 0.559998C19.612 0.559998 22.252 0.999998 24.3587 1.88C26.492 2.73333 28.052 3.82667 29.0387 5.16C30.052 6.46667 30.5587 7.81333 30.5587 9.2C30.5587 10.8 30.1987 12.1733 29.4787 13.32C28.7854 14.4667 27.772 15.4933 26.4387 16.4C25.132 17.28 23.372 18.24 21.1587 19.28C20.8387 19.44 20.3187 19.6267 19.5987 19.84C18.8787 20.0267 18.4254 20.1467 18.2387 20.2C16.3454 20.76 14.8387 21.2267 13.7187 21.6C12.5987 21.9733 11.5454 22.44 10.5587 23Z" fill="white"/>
</svg>
